<svg xmlns="http://www.w3.org/2000/svg" xml:space="preserve" width="1.70666in" height="1.70666in" version="1.1" style="shape-rendering:geometricPrecision; text-rendering:geometricPrecision; image-rendering:optimizeQuality; fill-rule:evenodd; clip-rule:evenodd" viewBox="0 0 1707 1707" xmlns:xlink="http://www.w3.org/1999/xlink">
 <defs>
  <style type="text/css">
   
    .fil0 {fill:black}
   
  </style>
 </defs>
 <g id="Layer_x0020_1">
  <metadata id="CorelCorpID_0Corel-Layer"></metadata>
  <path class="fil0" d="M714 869c5,-15 8,-32 9,-50 15,13 32,24 50,32l0 4 0 -4c24,12 50,18 78,18 50,0 94,-20 130,-51 0,17 3,34 8,51 -16,8 -33,14 -50,18l0 -2 0 2c-28,8 -58,12 -86,12 -45,0 -95,-10 -139,-30z" id="id_101"></path>
  <polygon class="fil0" points="1679,848 1679,848 " id="id_102" style="fill: rgb(235, 17, 20);"></polygon>
  <path class="fil0" d="M1153 1438l-604 0c-13,0 -25,-10 -26,-24 -4,-36 -19,-66 -36,-100 -15,-29 -30,-59 -40,-95 -9,-27 -12,-52 -15,-72 -3,-23 -6,-41 -13,-50 -9,-9 -28,-14 -60,-15 -112,-3 -175,-57 -241,-114 -13,-12 -27,-24 -41,-35 -8,-6 -14,-10 -20,-14 -24,-16 -36,-25 -54,-58 -2,-4 -3,-8 -3,-13 0,-116 63,-223 131,-322 10,-14 18,-30 26,-46 16,-33 32,-68 64,-82 55,-29 125,-22 167,16 25,22 61,74 23,174 -4,12 -17,19 -30,16 -10,-2 -22,-8 -37,-17 -14,-8 -32,-19 -52,-27 -4,12 -9,25 -14,38 -8,20 -16,44 -18,56 -1,21 0,44 2,69 1,14 2,29 2,44 90,-19 127,9 156,40 14,15 17,17 28,15 12,-2 33,-3 73,-4 21,-1 45,-1 71,-3 9,0 17,4 22,10 49,62 141,100 239,100 96,0 187,-38 236,-100 6,-6 14,-10 22,-10 27,2 50,2 71,3 38,1 61,2 73,5 11,2 14,-1 29,-16 29,-31 65,-59 156,-40 0,-14 1,-29 2,-44 2,-24 3,-48 2,-69 0,-1 0,-1 0,-2 0,-14 -12,-44 -22,-69 -3,-8 -6,-16 -9,-24 -21,9 -39,20 -54,28 -15,9 -26,15 -37,18 -13,2 -25,-5 -30,-17 -38,-100 -2,-152 23,-174 42,-38 112,-44 167,-16 32,15 48,49 65,82 7,16 16,33 25,46 67,92 135,201 135,322 0,5 -1,10 -4,15 -20,31 -33,40 -56,55 -6,4 -13,9 -21,15 -14,12 -28,23 -41,35 -66,57 -129,111 -241,114 -32,1 -51,6 -60,16 -7,9 -9,27 -12,50 -2,19 -5,44 -13,71 0,0 0,0 0,0 -11,35 -26,64 -41,92 -18,35 -35,66 -38,103 -2,14 -14,24 -27,24z" id="id_103" style="fill: rgb(40, 135, 250);"></path>
  <path class="fil0" d="M851 842c-60,0 -117,-35 -156,-96 -43,-66 -66,-158 -66,-268 0,-115 101,-210 224,-210 121,0 220,95 220,210 0,251 -115,364 -222,364z" id="id_104" style="fill: rgb(8, 95, 201);"></path>
 </g>
</svg>